<svg width="22" height="15" viewBox="0 0 22 15" fill="none" xmlns="http://www.w3.org/2000/svg">
<path d="M4 2V0H2V2H0V4H2V6H4V4H6V2H4Z" transform="translate(15.8594 4.00195)" fill="white"/>
<path d="M6.86 6.11075L7.02 8.38075H11.02C10.8214 9.27606 10.3088 10.0707 9.57517 10.621C8.8415 11.1712 7.93512 11.4407 7.02 11.3807C5.85305 11.3807 4.73389 10.9172 3.90873 10.092C3.08357 9.26686 2.62 8.1477 2.62 6.98075C2.62 5.8138 3.08357 4.69464 3.90873 3.86948C4.73389 3.04432 5.85305 2.58075 7.02 2.58075C8.07187 2.55319 9.09223 2.94122 9.86 3.66075L11.76 1.85075C10.4745 0.638166 8.76695 -0.0254913 7 0.000749544C6.08075 0.00074953 5.1705 0.18181 4.32122 0.533593C3.47194 0.885376 2.70026 1.40099 2.05025 2.051C1.40024 2.70101 0.884626 3.47269 0.532843 4.32197C0.18106 5.17124 0 6.0815 0 7.00075C0 7.92 0.18106 8.83025 0.532843 9.67953C0.884626 10.5288 1.40024 11.3005 2.05025 11.9505C2.70026 12.6005 3.47194 13.1161 4.32122 13.4679C5.1705 13.8197 6.08075 14.0007 7 14.0007C7.91354 14.0559 8.82841 13.917 9.68436 13.593C10.5403 13.2691 11.3179 12.7675 11.966 12.1213C12.6141 11.4751 13.118 10.6989 13.4444 9.84391C13.7709 8.9889 13.9125 8.07445 13.86 7.16075C13.8921 6.82819 13.8921 6.49331 13.86 6.16075L6.86 6.11075Z" fill="white"/>
</svg>
