<svg width="17" height="14" viewBox="0 0 17 14" fill="none" xmlns="http://www.w3.org/2000/svg">
<path fill-rule="evenodd" clip-rule="evenodd" d="M16.99 1.66021C16.3554 1.94672 15.6811 2.13552 14.99 2.22021C15.7279 1.7636 16.2724 1.05187 16.52 0.220213C15.8382 0.631729 15.0906 0.922655 14.31 1.08021C13.9822 0.734298 13.5866 0.459815 13.1478 0.273971C12.709 0.0881263 12.2365 -0.00507358 11.76 0.000212939C11.2991 0.00283191 10.8431 0.0962163 10.4183 0.275034C9.99344 0.453852 9.60797 0.714601 9.2839 1.04239C8.95982 1.37019 8.70348 1.7586 8.52951 2.18546C8.35555 2.61232 8.26737 3.06927 8.27 3.53021C8.26916 3.80275 8.29935 4.0745 8.36 4.34021C6.96889 4.26794 5.60888 3.90172 4.36958 3.2657C3.13027 2.62967 2.0398 1.73827 1.17 0.650213C0.723944 1.42872 0.587392 2.34665 0.787521 3.22129C0.98765 4.09593 1.50979 4.86314 2.25 5.37021C1.69556 5.35308 1.15349 5.20212 0.67 4.93021C0.666249 5.74245 0.942721 6.53113 1.45279 7.16325C1.96286 7.79537 2.67531 8.23225 3.47 8.40021C2.95825 8.5407 2.42098 8.56123 1.9 8.46021C2.11925 9.15802 2.5516 9.76961 3.13632 10.209C3.72104 10.6485 4.42875 10.8937 5.16 10.9102C3.92946 11.8896 2.40274 12.4221 0.83 12.4202C0.553572 12.4365 0.276428 12.4365 0 12.4202C1.58928 13.4532 3.4445 14.0022 5.34 14.0002C6.6542 13.999 7.95508 13.7369 9.16723 13.2292C10.3794 12.7215 11.4787 11.9782 12.4014 11.0424C13.3242 10.1067 14.052 8.99703 14.5427 7.77788C15.0334 6.55872 15.2772 5.2543 15.26 3.94021C15.26 3.78688 15.26 3.63355 15.26 3.48021C15.9397 2.98051 16.5254 2.36431 16.99 1.66021Z" fill="white"/>
</svg>
