<svg width="38" height="38" viewBox="0 0 38 38" fill="none" xmlns="http://www.w3.org/2000/svg">
<path d="M19 38C29.4934 38 38 29.4934 38 19C38 8.50659 29.4934 0 19 0C8.50659 0 0 8.50659 0 19C0 29.4934 8.50659 38 19 38Z" fill="#021622"/>
<path d="M24.6524 12.1432C23.0885 10.7144 21.1432 10 18.8201 10C16.3781 10 14.2964 10.8115 12.5785 12.438C10.8607 14.0645 10 16.0863 10 18.5069C10 20.827 10.8187 22.8211 12.4526 24.4927C14.0934 26.1642 16.2976 27 19.072 27C20.7444 27 22.3853 26.6601 23.9946 25.9769C24.5194 25.755 24.7749 25.1585 24.5614 24.6348C24.341 24.0938 23.7183 23.8441 23.176 24.073C21.7765 24.6695 20.405 24.9678 19.0685 24.9678C16.9413 24.9678 15.2935 24.3262 14.1249 23.0396C12.9599 21.7564 12.3756 20.2479 12.3756 18.5173C12.3756 16.6377 13.0019 15.0702 14.2509 13.8113C15.4964 12.5559 17.0323 11.9247 18.8516 11.9247C20.5275 11.9247 21.9444 12.4415 23.099 13.4749C24.2535 14.5084 24.8308 15.8089 24.8308 17.3764C24.8308 18.448 24.5649 19.3427 24.0366 20.0537C23.5083 20.7681 22.959 21.1218 22.3888 21.1218C22.0809 21.1218 21.9269 20.9588 21.9269 20.6293C21.9269 20.3623 21.9479 20.0502 21.9864 19.6895L22.6372 14.4147H20.398L20.2546 14.9315C19.6843 14.4702 19.058 14.2379 18.3793 14.2379C17.3017 14.2379 16.3781 14.6644 15.6119 15.5141C14.8421 16.3637 14.4608 17.4596 14.4608 18.7982C14.4608 20.1057 14.8002 21.1634 15.4824 21.9645C16.1646 22.7691 16.9833 23.1679 17.942 23.1679C18.7991 23.1679 19.5304 22.8107 20.1391 22.0998C20.5974 22.7829 21.2727 23.1228 22.1648 23.1228C23.4768 23.1228 24.6104 22.5575 25.5655 21.4235C26.5207 20.2929 27 18.9266 27 17.3278C27 15.3025 26.2198 13.572 24.6524 12.1432ZM19.4954 20.123C19.1 20.6501 18.6277 20.9172 18.0784 20.9172C17.7041 20.9172 17.4032 20.723 17.1758 20.3346C16.9448 19.9461 16.8294 19.4641 16.8294 18.8849C16.8294 18.1705 16.9903 17.5949 17.3122 17.1579C17.6341 16.7209 18.0329 16.499 18.5087 16.499C18.9216 16.499 19.2889 16.662 19.6108 16.9914C19.9327 17.3209 20.0936 17.7579 20.0936 18.3058C20.0901 18.989 19.8907 19.5924 19.4954 20.123Z" fill="white"/>
</svg>
