<svg width="38" height="38" viewBox="0 0 38 38" fill="none" xmlns="http://www.w3.org/2000/svg">
<path d="M19 38C29.4934 38 38 29.4934 38 19C38 8.50659 29.4934 0 19 0C8.50659 0 0 8.50659 0 19C0 29.4934 8.50659 38 19 38Z" fill="#2894D5"/>
<path d="M14.6219 11.7297C14.6219 12.6811 13.9188 13.4595 12.7683 13.4595C11.6818 13.4595 11 12.6811 11 11.7297C11 10.7568 11.7244 10 12.8322 10C13.9401 10 14.6006 10.7351 14.6219 11.7297ZM11.1065 26V14.8432H14.5367V26H11.1065Z" fill="white"/>
<path d="M16.5598 18.3895C16.5598 17.0057 16.5172 15.8382 16.4746 14.822H19.436L19.5852 16.3787H19.6491C20.0965 15.6436 21.2044 14.5625 23.0579 14.5625C25.3162 14.5625 26.9994 16.0976 26.9994 19.3841V26.0003H23.5905V19.8166C23.5905 18.3679 23.1005 17.3949 21.8648 17.3949C20.9274 17.3949 20.3521 18.0652 20.1178 18.6922C20.0326 18.9301 20.0113 19.2328 20.0113 19.5571V26.0003H16.5598V18.3895Z" fill="white"/>
</svg>
