<svg width="38" height="38" viewBox="0 0 38 38" fill="none" xmlns="http://www.w3.org/2000/svg">
<path d="M19 38C29.4934 38 38 29.4934 38 19C38 8.50659 29.4934 0 19 0C8.50659 0 0 8.50659 0 19C0 29.4934 8.50659 38 19 38Z" fill="#3B5C9A"/>
<path fill-rule="evenodd" clip-rule="evenodd" d="M23.1498 12.947H21.438C20.0946 12.947 19.8336 13.5806 19.8336 14.507V16.5535H23.0373L22.6204 19.7596H19.8336V27.9828H16.4935V19.7596H13.6992V16.5535H16.4935V14.1921C16.4935 11.447 18.1845 9.95312 20.6537 9.95312C21.8385 9.95312 22.8541 10.0413 23.1512 10.0806V12.947H23.1498Z" fill="white"/>
</svg>
