<svg width="18" height="18" viewBox="0 0 18 18" fill="none" xmlns="http://www.w3.org/2000/svg">
<rect width="18" height="18" fill="black" fill-opacity="0"/>
<path fill-rule="evenodd" clip-rule="evenodd" d="M17.6561 0.343912C17.1975 -0.114637 16.4542 -0.114637 15.9956 0.343912L9 7.33952L2.00439 0.343912C1.54584 -0.114637 0.802461 -0.114637 0.343912 0.343912C-0.114637 0.802461 -0.114637 1.54584 0.343912 2.00439L7.33952 9L0.343912 15.9956C-0.114637 16.4542 -0.114637 17.1975 0.343912 17.6561C0.802461 18.1146 1.54584 18.1146 2.00439 17.6561L9 10.6605L15.9956 17.6561C16.4542 18.1146 17.1975 18.1146 17.6561 17.6561C18.1146 17.1975 18.1146 16.4542 17.6561 15.9956L10.6605 9L17.6561 2.00439C18.1146 1.54584 18.1146 0.802461 17.6561 0.343912Z" fill="white"/>
</svg>
