<svg width="91" height="91" viewBox="0 0 91 91" fill="none" xmlns="http://www.w3.org/2000/svg">
<path d="M26.7313 36.9688L20.475 43.225L40.95 63.7L86.45 18.2L80.1937 11.9437L40.95 51.1875L26.7313 36.9688ZM81.9 45.5C81.9 65.4062 65.4062 81.9 45.5 81.9C25.5938 81.9 9.1 65.4062 9.1 45.5C9.1 25.5938 25.5938 9.1 45.5 9.1C48.9125 9.1 52.325 9.66875 55.7375 10.2375L62.5625 3.4125C56.875 1.70625 51.1875 0 45.5 0C20.475 0 0 20.475 0 45.5C0 70.525 20.475 91 45.5 91C70.525 91 91 70.525 91 45.5H81.9Z" fill="#60D36E"/>
</svg>
