<svg width="105" height="82" viewBox="0 0 105 82" fill="none" xmlns="http://www.w3.org/2000/svg">
<path d="M57.1162 55.999C57.1162 49.9476 57.9541 44.0824 59.6299 38.4033C61.3057 32.7243 64.0055 27.4642 67.7295 22.623C71.5465 17.7819 76.4342 13.4528 82.3926 9.63574C88.3509 5.72559 95.5661 2.51367 104.038 0V12.0098C94.7282 14.9889 87.8854 18.6198 83.5098 22.9023C79.1341 27.1849 76.9463 32.1191 76.9463 37.7051C76.9463 39.5671 77.4583 41.1497 78.4824 42.4531C79.5065 43.6634 80.7633 44.7806 82.2529 45.8047C83.8356 46.7357 85.5114 47.6667 87.2803 48.5977C89.1423 49.5286 90.818 50.6458 92.3076 51.9492C93.8903 53.2526 95.1937 54.8818 96.2178 56.8369C97.2419 58.6989 97.7539 61.0729 97.7539 63.959C97.7539 69.4518 95.985 73.6413 92.4473 76.5273C88.9095 79.4134 84.4873 80.8564 79.1807 80.8564C76.2946 80.8564 73.5016 80.3444 70.8018 79.3203C68.1019 78.2031 65.7279 76.6204 63.6797 74.5723C61.7246 72.431 60.1419 69.8242 58.9316 66.752C57.7214 63.5866 57.1162 60.0023 57.1162 55.999ZM0 55.999C0 49.9476 0.837891 44.0824 2.51367 38.4033C4.18945 32.7243 6.88932 27.4642 10.6133 22.623C14.4303 17.7819 19.318 13.4528 25.2764 9.63574C31.2347 5.72559 38.4499 2.51367 46.9219 0V12.0098C37.5189 14.9889 30.6296 18.6198 26.2539 22.9023C21.8783 27.1849 19.6904 32.1191 19.6904 37.7051C19.6904 39.5671 20.2025 41.1497 21.2266 42.4531C22.2507 43.6634 23.554 44.7806 25.1367 45.8047C26.7194 46.7357 28.3952 47.6667 30.1641 48.5977C31.9329 49.5286 33.6087 50.6458 35.1914 51.9492C36.7741 53.2526 38.0775 54.8818 39.1016 56.8369C40.1257 58.6989 40.6377 61.0729 40.6377 63.959C40.6377 69.4518 38.8223 73.6413 35.1914 76.5273C31.6536 79.4134 27.2314 80.8564 21.9248 80.8564C19.0387 80.8564 16.2458 80.3444 13.5459 79.3203C10.9391 78.2031 8.61165 76.6204 6.56348 74.5723C4.5153 72.431 2.88607 69.8242 1.67578 66.752C0.558594 63.5866 0 60.0023 0 55.999Z" transform="translate(0 0.603516)" fill="#00171F"/>
</svg>
