<svg width="91" height="95" viewBox="0 0 91 95" fill="none" xmlns="http://www.w3.org/2000/svg">
<circle cx="33.5" cy="33.5" r="33.5" transform="translate(19 0.396484)" fill="#BEC8FF"/>
<path d="M0 4C0 1.79086 1.79086 0 4 0H57C59.2091 0 61 1.79086 61 4V38C61 40.2091 59.2091 42 57 42H4C1.79086 42 0 40.2091 0 38V4Z" transform="translate(68 9.39648) scale(-1 1)" fill="#292C3F"/>
<path d="M0 50.9808V39C0 37.8954 0.895431 37 2 37H13.3503C15.1061 37 16.0098 39.1008 14.8022 40.3755L3.45191 52.3563C2.20847 53.6688 0 52.7888 0 50.9808Z" transform="translate(68 9.39648) scale(-1 1)" fill="#292C3F"/>
<g filter="url(#filter0_dd)">
<path d="M0 2.86874C0 1.28438 1.29177 0 2.88525 0H41.1148C42.7082 0 44 1.28438 44 2.86874V27.2531C44 28.8374 42.7082 30.1218 41.1148 30.1218H2.88525C1.29177 30.1218 0 28.8374 0 27.2531V2.86874Z" transform="translate(15 21.3965)" fill="#3D5AFE"/>
<path d="M0 36.5627V27.9703C0 27.1781 0.645884 26.5359 1.44262 26.5359H9.6297C10.8962 26.5359 11.548 28.0426 10.677 28.9567L2.4899 37.5492C1.593 38.4905 0 37.8594 0 36.5627Z" transform="translate(15 21.3965)" fill="#3D5AFE"/>
</g>
<g filter="url(#filter1_dd)">
<path d="M0 4C0 1.79086 1.79086 0 4 0H57C59.2091 0 61 1.79086 61 4V38C61 40.2091 59.2091 42 57 42H4C1.79086 42 0 40.2091 0 38V4Z" transform="translate(15 21.3965)" fill="#3D5AFE"/>
<path d="M0 50.9808V39C0 37.8954 0.895431 37 2 37H13.3503C15.1061 37 16.0098 39.1008 14.8022 40.3755L3.45191 52.3563C2.20847 53.6688 0 52.7888 0 50.9808Z" transform="translate(15 21.3965)" fill="#3D5AFE"/>
</g>
<circle opacity="0.25" cx="4" cy="4" r="4" transform="translate(26 39.3965)" fill="white"/>
<circle opacity="0.5" cx="4" cy="4" r="4" transform="translate(41 39.3965)" fill="white"/>
<circle cx="4" cy="4" r="4" transform="translate(56 39.3965)" fill="white"/>
<defs>
<filter id="filter0_dd" x="0" y="11.3965" width="74" height="68" filterUnits="userSpaceOnUse" color-interpolation-filters="sRGB">
<feFlood flood-opacity="0" result="BackgroundImageFix"/>
<feColorMatrix in="SourceAlpha" type="matrix" values="0 0 0 0 0 0 0 0 0 0 0 0 0 0 0 0 0 0 255 0"/>
<feOffset dy="2"/>
<feGaussianBlur stdDeviation="2"/>
<feColorMatrix type="matrix" values="0 0 0 0 0 0 0 0 0 0 0 0 0 0 0 0 0 0 0.1 0"/>
<feBlend mode="normal" in2="BackgroundImageFix" result="effect1_dropShadow"/>
<feColorMatrix in="SourceAlpha" type="matrix" values="0 0 0 0 0 0 0 0 0 0 0 0 0 0 0 0 0 0 255 0"/>
<feOffset dy="5"/>
<feGaussianBlur stdDeviation="7.5"/>
<feColorMatrix type="matrix" values="0 0 0 0 0 0 0 0 0 0 0 0 0 0 0 0 0 0 0.1 0"/>
<feBlend mode="normal" in2="effect1_dropShadow" result="effect2_dropShadow"/>
<feBlend mode="normal" in="SourceGraphic" in2="effect2_dropShadow" result="shape"/>
</filter>
<filter id="filter1_dd" x="0" y="11.3965" width="91" height="82.9849" filterUnits="userSpaceOnUse" color-interpolation-filters="sRGB">
<feFlood flood-opacity="0" result="BackgroundImageFix"/>
<feColorMatrix in="SourceAlpha" type="matrix" values="0 0 0 0 0 0 0 0 0 0 0 0 0 0 0 0 0 0 255 0"/>
<feOffset dy="2"/>
<feGaussianBlur stdDeviation="2"/>
<feColorMatrix type="matrix" values="0 0 0 0 0 0 0 0 0 0 0 0 0 0 0 0 0 0 0.1 0"/>
<feBlend mode="normal" in2="BackgroundImageFix" result="effect1_dropShadow"/>
<feColorMatrix in="SourceAlpha" type="matrix" values="0 0 0 0 0 0 0 0 0 0 0 0 0 0 0 0 0 0 255 0"/>
<feOffset dy="5"/>
<feGaussianBlur stdDeviation="7.5"/>
<feColorMatrix type="matrix" values="0 0 0 0 0 0 0 0 0 0 0 0 0 0 0 0 0 0 0.1 0"/>
<feBlend mode="normal" in2="effect1_dropShadow" result="effect2_dropShadow"/>
<feBlend mode="normal" in="SourceGraphic" in2="effect2_dropShadow" result="shape"/>
</filter>
</defs>
</svg>
