<svg width="21" height="16" viewBox="0 0 21 16" fill="none" xmlns="http://www.w3.org/2000/svg">
<path d="M2.39456 3.26531C2.4127 3.01134 2.322 2.77551 2.14059 2.61224L0.253968 0.344671V0H6.09524L10.6122 9.90476L14.585 0H20.1542V0.344671L18.5397 1.88662C18.3946 1.99546 18.3401 2.15873 18.3583 2.34014V13.6599C18.322 13.8231 18.3946 14.0045 18.5397 14.1134L20.1179 15.6553V16H12.2086V15.6553L13.8413 14.0771C14.0045 13.9138 14.0045 13.8776 14.0045 13.6236V4.46259L9.48753 15.9456H8.87075L3.60998 4.46259V12.1723C3.5737 12.4989 3.68254 12.8254 3.90023 13.0612L6.00454 15.619V15.9637H0V15.619L2.12245 13.0612C2.34014 12.8254 2.44898 12.4989 2.39456 12.1723V3.26531Z" fill="white"/>
</svg>
