<svg width="38" height="38" viewBox="0 0 38 38" fill="none" xmlns="http://www.w3.org/2000/svg">
<path d="M19 38C29.4934 38 38 29.4934 38 19C38 8.50659 29.4934 0 19 0C8.50659 0 0 8.50659 0 19C0 29.4934 8.50659 38 19 38Z" fill="#2BAEEC"/>
<path d="M27.5 13.6603C26.8542 13.9473 26.1667 14.1318 25.4375 14.2138C26.1875 13.7628 26.75 13.0864 27.0208 12.2665C26.3333 12.6764 25.5625 12.9634 24.75 13.1274C24.1042 12.4305 23.1667 12 22.125 12C20.1458 12 18.5417 13.5783 18.5417 15.5461C18.5417 15.8126 18.5833 16.0791 18.6458 16.366C15.6667 16.202 13 14.8082 11.2292 12.6764C10.9167 13.1889 10.7292 13.8038 10.7292 14.4597C10.7292 15.6691 11.3542 16.7555 12.3125 17.3909C11.7292 17.3704 11.1667 17.2269 10.6875 16.94V16.981C10.6875 18.7028 11.9167 20.1171 13.5833 20.4451C13.2917 20.5271 12.9792 20.5681 12.6458 20.5681C12.4167 20.5681 12.1875 20.5476 11.9792 20.5066C12.4375 21.9209 13.7708 22.9253 15.3333 22.9663C14.1042 23.9092 12.5625 24.4832 10.875 24.4832C10.5833 24.4832 10.3125 24.4627 10 24.4217C11.5833 25.4261 13.4792 26 15.5 26C22.1042 26 25.7292 20.6296 25.7292 15.9356L25.7083 15.4641C26.4167 15.0132 27.0208 14.3572 27.5 13.6603Z" fill="white"/>
</svg>
