<svg width="18" height="18" viewBox="0 0 18 18" fill="none" xmlns="http://www.w3.org/2000/svg">
<path d="M9 1.62C11.4 1.62 11.69 1.62 12.64 1.67C13.2114 1.68373 13.7763 1.79535 14.31 2C14.6925 2.15086 15.0398 2.37872 15.3306 2.66944C15.6213 2.96016 15.8491 3.30753 16 3.69C16.1978 4.22491 16.3027 4.78973 16.31 5.36C16.31 6.31 16.36 6.59 16.36 9C16.36 11.41 16.36 11.69 16.31 12.64C16.3027 13.2103 16.1978 13.7751 16 14.31C15.8491 14.6925 15.6213 15.0398 15.3306 15.3306C15.0398 15.6213 14.6925 15.8491 14.31 16C13.7751 16.1978 13.2103 16.3027 12.64 16.31C11.69 16.31 11.41 16.36 9 16.36C6.59 16.36 6.31 16.36 5.36 16.31C4.78973 16.3027 4.22491 16.1978 3.69 16C3.30753 15.8491 2.96016 15.6213 2.66944 15.3306C2.37872 15.0398 2.15086 14.6925 2 14.31C1.80218 13.7751 1.69733 13.2103 1.69 12.64C1.69 11.69 1.64 11.41 1.64 9C1.64 6.59 1.64 6.31 1.69 5.36C1.69733 4.78973 1.80218 4.22491 2 3.69C2.15086 3.30753 2.37872 2.96016 2.66944 2.66944C2.96016 2.37872 3.30753 2.15086 3.69 2C4.22491 1.80218 4.78973 1.69733 5.36 1.69C6.31 1.69 6.59 1.64 9 1.64V1.62ZM9 0C6.56 0 6.25 -4.84288e-08 5.29 0.05C4.54485 0.0660938 3.80779 0.208096 3.11 0.47C2.51084 0.699962 1.96642 1.05275 1.51176 1.5057C1.05709 1.95864 0.702234 2.50171 0.47 3.1C0.208096 3.79779 0.0660938 4.53485 0.05 5.28C-4.84288e-08 6.25 0 6.56 0 9C0 11.44 -4.84288e-08 11.75 0.05 12.71C0.0660938 13.4551 0.208096 14.1922 0.47 14.89C0.699962 15.4892 1.05275 16.0336 1.5057 16.4882C1.95864 16.9429 2.50171 17.2978 3.1 17.53C3.79779 17.7919 4.53485 17.9339 5.28 17.95C6.28 17.95 6.55 18 8.99 18C11.43 18 11.74 18 12.7 17.95C13.4451 17.9339 14.1822 17.7919 14.88 17.53C15.4773 17.2989 16.0198 16.9455 16.4727 16.4927C16.9255 16.0398 17.2789 15.4973 17.51 14.9C17.7719 14.2022 17.9139 13.4651 17.93 12.72C17.93 11.72 17.98 11.45 17.98 9.01C17.98 6.57 17.98 6.26 17.93 5.3C17.9139 4.55485 17.7719 3.81779 17.51 3.12C17.2834 2.52092 16.9342 1.97577 16.4848 1.51944C16.0353 1.06311 15.4956 0.705666 14.9 0.47C14.2022 0.208096 13.4651 0.0660938 12.72 0.05C11.75 -4.84288e-08 11.44 0 9 0Z" fill="white"/>
<path d="M4.62 0C3.70625 0 2.81302 0.270958 2.05327 0.77861C1.29351 1.28626 0.701356 2.00781 0.351679 2.852C0.00200182 3.6962 -0.0894897 4.62513 0.0887741 5.52132C0.267038 6.41751 0.70705 7.24071 1.35317 7.88683C1.99929 8.53295 2.82249 8.97296 3.71868 9.15123C4.61488 9.32949 5.54381 9.238 6.388 8.88832C7.23219 8.53865 7.95374 7.94649 8.46139 7.18673C8.96904 6.42698 9.24 5.53375 9.24 4.62C9.24 3.3947 8.75325 2.21958 7.88684 1.35317C7.02042 0.486749 5.8453 0 4.62 0ZM4.62 7.62C4.02666 7.62 3.44664 7.44405 2.95329 7.11441C2.45994 6.78476 2.07543 6.31623 1.84836 5.76805C1.6213 5.21987 1.56189 4.61667 1.67765 4.03473C1.7934 3.45279 2.07912 2.91824 2.49868 2.49868C2.91824 2.07912 3.45279 1.7934 4.03473 1.67764C4.61667 1.56189 5.21987 1.6213 5.76805 1.84836C6.31623 2.07542 6.78477 2.45994 7.11441 2.95329C7.44406 3.44664 7.62 4.02666 7.62 4.62C7.62 5.41565 7.30393 6.17871 6.74132 6.74132C6.17871 7.30393 5.41565 7.62 4.62 7.62Z" transform="translate(4.37988 4.37891)" fill="white"/>
<path d="M1.08 2.16C1.67647 2.16 2.16 1.67647 2.16 1.08C2.16 0.483532 1.67647 0 1.08 0C0.483531 0 0 0.483532 0 1.08C0 1.67647 0.483531 2.16 1.08 2.16Z" transform="translate(12.7197 3.11914)" fill="white"/>
</svg>
