<svg width="89" height="30" viewBox="0 0 89 30" fill="none" xmlns="http://www.w3.org/2000/svg">
<path d="M13.128 12.408C13.128 8.76 10.176 7.848 7.512 7.224C4.848 6.6 4.128 6.264 4.128 5.208C4.128 4.464 4.728 3.696 6.528 3.696C8.064 3.696 9.264 4.32 10.344 5.424L12.768 3.072C11.184 1.416 9.264 0.431999 6.648 0.431999C3.336 0.431999 0.648 2.304 0.648 5.352C0.648 8.664 2.808 9.648 5.904 10.368C9.072 11.088 9.648 11.568 9.648 12.648C9.648 13.92 8.712 14.472 6.72 14.472C5.112 14.472 3.6 13.92 2.424 12.552L0 14.712C1.272 16.584 3.72 17.76 6.528 17.76C11.112 17.76 13.128 15.6 13.128 12.408Z" transform="translate(41.344 6.50403)" fill="#1E2059"/>
<path d="M26.0432 11.352C26.0432 6.648 23.8352 4.632 21.1472 4.632C19.9472 4.632 19.1072 5.136 18.4832 5.688V4.896H15.1712V22.128L18.4832 20.472V16.776C19.0832 17.328 20.0432 17.76 21.1472 17.76C24.2672 17.76 26.0432 15.12 26.0432 11.352ZM22.6832 11.424C22.6832 13.536 21.9872 14.64 20.7152 14.64C19.7552 14.64 18.9872 14.256 18.4832 13.56V8.808C18.9632 8.184 19.4912 7.752 20.5232 7.752C21.8192 7.752 22.6832 8.832 22.6832 11.424Z" transform="translate(41.344 6.50403)" fill="#1E2059"/>
<path d="M31.1197 17.496V0L27.8078 1.656V17.496H31.1197Z" transform="translate(41.344 6.50403)" fill="#1E2059"/>
<path d="M37.1732 1.968C37.1732 0.935999 36.3092 0.0719991 35.2772 0.0719991C34.2452 0.0719991 33.3812 0.935999 33.3812 1.968C33.3812 3 34.2452 3.864 35.2772 3.864C36.3092 3.864 37.1732 3 37.1732 1.968ZM36.9332 17.496V4.896H33.6212V17.496H36.9332Z" transform="translate(41.344 6.50403)" fill="#1E2059"/>
<path d="M46.8266 13.632C46.0106 14.328 45.5546 14.592 44.9546 14.592C44.1626 14.592 43.7306 14.28 43.7306 13.08V8.016H46.7546V4.896H43.7306V0L40.4186 1.656V4.896H38.3066V8.016H40.4186V13.968C40.4186 16.176 41.7386 17.76 43.7786 17.76C44.8106 17.76 45.7946 17.424 46.3466 16.992L46.8266 13.632Z" transform="translate(41.344 6.50403)" fill="#1E2059"/>
<mask id="mask0" mask-type="alpha" maskUnits="userSpaceOnUse" x="0" y="0" width="30" height="30">
<rect width="30" height="30" rx="15" fill="white"/>
<rect width="30" height="30" rx="15" fill="url(#paint0_linear)"/>
</mask>
<g mask="url(#mask0)">
<circle cx="11.4583" cy="11.4583" r="11.4583" transform="translate(3.33331 -15.6666)" fill="#CCB6FD"/>
<circle cx="11.4583" cy="11.4583" r="11.4583" transform="translate(3.33331 22.75)" fill="#FD7EFD"/>
<circle cx="11.4583" cy="11.4583" r="11.4583" transform="translate(23.5417 26.4584) rotate(-90)" fill="#1E2059"/>
<circle cx="11.4583" cy="11.4583" r="11.4583" transform="translate(-16.2917 26.4584) rotate(-90)" fill="#9B65E5"/>
<circle cx="11.4583" cy="11.4583" r="11.4583" transform="translate(22.5417 26.4584) rotate(-90)" fill="#FEC5F7"/>
</g>
<defs>
<linearGradient id="paint0_linear" x2="1" gradientUnits="userSpaceOnUse" gradientTransform="translate(30) scale(30) rotate(90)">
<stop stop-color="#E8007E"/>
<stop offset="1" stop-color="#FFB4CF"/>
</linearGradient>
</defs>
</svg>
